# xmcd
#
# Track frame offsets:
#	169
#	20972
#	43914
#	70110
#	95771
#	117583
#	144448
#	166038
#	188062
#	209687
#	235740
#	254862
#	291094
#
# Disc length: 4147 seconds
#
# Revision: 0
# Processed by: cddbd v1.5.2PL0 Copyright (c) Steve Scherf et al.
# Submitted via: audiograbber 1.83.01
#
DISCID=cd10310d
DTITLE=Mighty Sam McClain - Soul Survivor - The Best Of Mighty Sam McClain [SAC
DTITLE=D]
DYEAR=1999
DGENRE=Blues/Soul
TTITLE0=Too Proud
TTITLE1=Can You Stand The Test Of Love
TTITLE2=Who Made You Cry?
TTITLE3=New Man In Town
TTITLE4=What You Want Me To Do?
TTITLE5=Where You Been So Long?
TTITLE6=Honey Chile
TTITLE7=Here I Go Falling In Love Again
TTITLE8=Lord Will Make A Way
TTITLE9=Hanging On The Cross
TTITLE10=I'm Gonna Love You
TTITLE11=When The Hurt Is Over
TTITLE12=Give It Up To Love
EXTD=
EXTT0=
EXTT1=
EXTT2=
EXTT3=
EXTT4=
EXTT5=
EXTT6=
EXTT7=
EXTT8=
EXTT9=
EXTT10=
EXTT11=
EXTT12=
PLAYORDER=
